# xmcd
#
# Track frame offsets:
#  150
#  17084
#  32658
#  45660
#  67512
#  86489
#  103615
#  120083
#  142615
#  159843
#  176754
#  201098
#
# Disc length: 2932 seconds
#
# Revision: 0
# Processed by: cddbd v1.5.1PL2 Copyright (c) Steve Scherf et al.
# Submitted via: AltoMP3_Maker 3.0
#
DISCID=820b720c
DTITLE=Tom Rigney and Flambeau - Off The Hook
DYEAR=1900
DGENRE=
TTITLE0=My Babe
TTITLE1=Off the Hook
TTITLE2=Never Let You Take It Away
TTITLE3=Forbidden Fruit
TTITLE4=Let Me Be Your Fool Tonight
TTITLE5=La Porte en Arriere (The Back Door)
TTITLE6=Farewell Waltz
TTITLE7=Cocodril Stomp
TTITLE8=I Won't Be Sad Tonight
TTITLE9=Pont de Vue
TTITLE10=Insomnia
TTITLE11=Tes Parents Veulent Plus me Voir
EXTD=
EXTT0=
EXTT1=
EXTT2=
EXTT3=
EXTT4=
EXTT5=
EXTT6=
EXTT7=
EXTT8=
EXTT9=
EXTT10=
EXTT11=
PLAYORDER=
